<?xml version="1.0" encoding="UTF-8" standalone="no"?>
<svg width="202px" height="48px" viewBox="0 0 202 48" version="1.1" xmlns="http://www.w3.org/2000/svg" xmlns:xlink="http://www.w3.org/1999/xlink" xmlns:sketch="http://www.bohemiancoding.com/sketch/ns">
    <!-- Generator: Sketch 3.3.1 (12002) - http://www.bohemiancoding.com/sketch -->
    <title>cta-white</title>
    <desc>Created with Sketch.</desc>
    <defs></defs>
    <g id="Page-1" stroke="none" stroke-width="1" fill="none" fill-rule="evenodd" sketch:type="MSPage">
        <g id="cta-white" sketch:type="MSLayerGroup" fill="#EAE8E2">
            <path d="M40.6035156,1.40556439 C49.8300781,1.40556439 92.8887168,0.246453335 96.9778761,1.16645334 C101.067035,2.08734222 131.048673,0.99489778 135.070796,0.53089778 C139.09292,0.0677866685 200.585106,1.36378667 200.585106,1.36378667 L198.127142,3.88289778 L200.212389,5.52823111 L197.977876,7.21623111 L199.914752,8.84556445 L197.595327,10.4748978 L199.616221,12.10512 L198.052062,14.10512 L199.839673,15.1415644 L198.127142,16.6233422 L200.212389,17.8828978 L198.201327,19.8082311 L200.138204,21.0677867 L198.424779,22.5495644 L200.212389,24.2526756 L198.888664,25.6606756 L200.585106,27.2348978 L198.64823,28.9015644 L200.585106,30.40112 L198.888664,31.6233422 L200.585106,32.7895644 L199.150549,34.7895644 L200.585106,36.1228978 L199.374894,38.1788978 L201.106195,39.8455644 L199.769956,41.2197867 L201.385062,43.1788978 L199.898664,44.6953422 L196.190265,45.5317867 C196.190265,45.5317867 193.955752,45.9540089 190.827434,45.9557867 C187.699115,45.9566756 156.186523,47.0660107 156.186523,47.0660107 L126.273239,46.6242311 C126.273239,46.6242311 110.82292,47.0277867 107.699071,46.9362311 C104.575221,46.8455644 35.7522124,47.06512 33.9646018,47.0660089 C32.1769912,47.0677867 0.744539823,45.6606756 0.744539823,45.6606756 L2.75560177,43.6606756 L0.89380531,41.7344533 L2.68141593,40.10512 L0.89380531,38.2526756 L2.4579646,36.6233422 L0.596168142,34.9940089 L2.60723009,32.8455644 L0.596168142,31.2162311 L2.4579646,29.2162311 L0.744539823,27.5380089 L2.4579646,25.2900089 L0.819619469,24.0304533 L2.16032743,21.9566756 L0,20.9193422 L2.16032743,18.9940089 L0.596168142,16.9940089 L2.08524779,15.6606756 L0.521088496,13.5860089 L2.08524779,11.8828978 L0.521088496,10.4748978 L1.86179646,8.77178667 L0,7.66067556 L1.86179646,5.66067556 L0,4.24023111 L2.68141593,2.40556445 C2.68141593,2.40556445 31.3769531,1.40556439 40.6035156,1.40556439 Z" id="Imported-Layers-3" sketch:type="MSShapeGroup"></path>
        </g>
    </g>
</svg>