<?xml version="1.0" encoding="UTF-8" standalone="no"?>
<svg width="124px" height="59px" viewBox="0 0 124 59" version="1.1" xmlns="http://www.w3.org/2000/svg" xmlns:xlink="http://www.w3.org/1999/xlink" xmlns:sketch="http://www.bohemiancoding.com/sketch/ns">
    <!-- Generator: Sketch 3.2.2 (9983) - http://www.bohemiancoding.com/sketch -->
    <title>logo-gomex-angle</title>
    <desc>Created with Sketch.</desc>
    <defs></defs>
    <g id="Page-1" stroke="none" stroke-width="1" fill="none" fill-rule="evenodd" sketch:type="MSPage">
        <g id="logo-gomex-angle" sketch:type="MSLayerGroup" transform="translate(62.565388, 28.554531) rotate(-7.000000) translate(-62.565388, -28.554531) translate(1.065388, 4.054531)" fill="#FBCE20">
            <path d="M20.5071282,0.425779069 L20.730572,0.181585414 L20.6328753,0.0812185946 L20.5304858,0.0827246348 L1.84792134,0.189761061 L1.6964702,0.349293744 L1.92290032,0.604997849 L1.69892328,0.85284903 L1.92663327,1.10823041 L1.70190964,1.35425283 L1.9253534,1.61350689 L1.7029762,1.85952931 L1.92833976,2.11835307 L1.70766905,2.3651285 L1.93303261,2.62492043 L1.70457604,2.87890335 L1.93100615,3.11965463 L1.70873561,3.37525116 L1.93249933,3.61600244 L1.70734908,3.8580446 L1.93463245,4.10858514 L1.71214859,4.3569742 L1.93857871,4.61181771 L1.71214859,4.86580062 L1.94039186,5.11107002 L1.71332181,5.35386521 L1.97814799,5.6267812 L1.99222654,17.0368642 C1.91543442,17.040199 1.82147072,17.0450399 1.76515649,17.0505261 L1.72281417,17.0953846 L1.94988422,17.3353829 L1.74883816,17.5660222 L1.75459757,17.6219608 L1.95073746,17.8351731 L1.78126151,18.0165433 L1.78499446,18.143481 L1.95276392,18.3256043 L1.80877869,18.4759932 L1.82563029,18.6781253 L1.95532366,18.8259324 L1.84589488,18.9548064 L1.86359973,19.2261087 L1.9588433,19.3290573 L1.87938478,19.4151168 L1.90103589,19.7430032 L1.95681684,19.7994797 L1.90743524,19.8528366 L1.9364456,20.2619417 L1.95841668,20.2877595 L1.94039186,20.3109955 L1.99830592,21.1168346 L2.00278546,22.8181221 L2.15892945,22.9689413 L2.30632767,22.9674352 L2.48412278,22.8132813 L2.65306545,22.9708776 L2.82008833,22.9667898 L2.98529806,22.823716 L3.14453506,22.9702322 L3.33278243,22.9708776 L3.49532577,22.8304932 L3.63653795,22.9714155 L3.85400899,22.9689413 L4.00375364,22.8448005 L4.13078061,22.9680807 L4.37352906,22.9674352 L4.50268915,22.8496414 L4.62555655,22.9689413 L4.88494329,22.9674352 L5.00354446,22.8617973 L5.10924029,22.9632398 L5.39561093,22.9647459 L5.50653289,22.8734153 L5.59655033,22.9647459 L5.91075811,22.9674352 L6.00610834,22.8849257 L6.08418033,22.9660368 L6.42387884,22.9660368 L6.50056431,22.8937468 L6.57799637,22.9660368 L6.9368929,22.9639929 L7.01005874,22.9020301 L7.06775949,22.9632398 L7.39380606,22.9625944 C7.39380606,22.9625944 7.3946593,22.3374801 7.39263284,22.106303 C8.0013171,22.0598309 13.2772562,21.6867632 13.9761712,21.635773 L13.9765978,22.5418713 L14.2108138,22.3386635 L14.4565486,22.5726376 L14.7138022,22.3495285 L14.9558041,22.5835026 L15.2146575,22.3600707 L15.4553795,22.5966266 L15.7166861,22.3701827 L15.9552749,22.6052326 L16.211782,22.3818008 L16.4531439,22.6177112 L16.7180767,22.3947097 L16.9541058,22.6224445 L17.2211718,22.4022399 L17.4625337,22.6395488 L17.7014426,22.4076186 L17.9540033,22.646326 L18.2073107,22.4206351 L18.4305411,22.6545016 L18.6873681,22.4307471 L18.9220107,22.6653666 L19.1849171,22.4404287 L19.3765775,22.6230899 L19.3735911,21.253454 C19.4808868,21.2444177 19.6663611,21.2286043 19.6663611,21.2286043 L19.3653786,16.9760847 C19.3653786,16.9760847 19.3661252,14.6872264 19.3628189,14.0696424 C19.4711811,14.0742681 19.653989,14.0776029 19.653989,14.0776029 L19.794028,8.6431645 L10.0422812,8.38348015 L9.9058685,13.8253411 C9.9058685,13.8253411 13.3551149,13.9147354 13.9661455,13.9311942 L13.9692386,16.1804652 C13.3645006,16.2248934 8.08344202,16.6052761 7.38644681,16.6522861 L7.37364812,5.59601495 C8.034807,5.59268015 18.731417,5.52985676 20.6535665,5.5196372 L20.52206,5.37570279 L20.7488101,5.12150473 L20.5206735,4.88279736 L20.7464637,4.6239736 L20.52238,4.38139356 L20.7424108,4.12848639 L20.5173672,3.89106991 L20.7424108,3.63977635 L20.5153407,3.38353438 L20.7430507,3.13256354 L20.5153407,2.89536222 L20.7389978,2.64535955 L20.5133143,2.40331738 L20.7366514,2.15514348 L20.5092613,1.91514522 L20.737078,1.6611623 L20.5086214,1.41912013 L20.733665,1.1630933 L20.5045685,0.917608757 L20.7356915,0.679761986 L20.5071282,0.425779069" id="Fill-1" sketch:type="MSShapeGroup"></path>
            <path d="M17.7700222,28.7624626 L17.7417584,28.6920015 L17.414432,28.5127827 L17.3157754,28.5374172 L17.2723666,28.4311338 L17.0078603,28.2828964 L16.88094,28.3278625 L16.8201463,28.1833902 L16.6099278,28.062154 L16.4406652,28.1145426 L16.3685659,27.9257498 L16.2051693,27.8323753 L16.0077495,27.9026213 L15.9144258,27.6728426 L15.8079834,27.6107722 L15.5628885,27.6856439 L15.4542063,27.4116522 L15.3921327,27.3781966 L15.1106682,27.4647939 L15.0055056,27.1627253 L15.0014527,27.1578844 L14.6786058,27.2540558 L14.5572316,26.9458555 L14.2516629,27.0460071 L14.1237827,26.7304917 L13.8025356,26.8309661 L13.7508076,26.6782106 C13.1136463,27.8307616 9.36427069,34.6193453 9.19660789,34.9206609 L8.561473,34.9378728 C8.39519672,34.6010576 4.9475502,27.7926803 4.43272299,26.7931 L4.37480893,26.9506963 L4.04566934,26.856784 L3.93272092,27.1710085 L3.60859415,27.0789249 L3.49009963,27.3885237 L3.16405306,27.2950416 L3.05366438,27.6074374 L2.72804443,27.5138478 L2.59963093,27.834957 L2.2816902,27.7368493 L2.27849053,27.7374947 L2.16799519,28.0497829 L1.85944016,27.9543645 L1.84045544,27.9652295 L1.73028007,28.2705254 L1.43089743,28.1740312 L1.40220704,28.1901674 L1.2962979,28.4877179 L1.00160811,28.3996145 L0.958199228,28.4208067 L0.85719625,28.6968423 L0.571038923,28.6212176 L0.510351812,28.6504778 L0.410735359,28.9246847 L0.144415997,28.8380874 L0.143136129,28.8401313 L6.10615141,40.603811 C6.10615141,40.603811 6.4502228,40.427174 6.46099503,40.4230862 C6.4772067,41.2629187 6.61937879,46.8173024 6.64390961,47.9831927 L6.78224209,47.857761 L7.02947008,48.095823 L7.28683036,47.8741123 L7.52264618,48.104644 L7.7825662,47.8877743 L8.02232828,48.1134651 L8.28502135,47.8959499 L8.52457012,48.129171 L8.78246368,47.9033725 L9.02243908,48.1394981 L9.28737191,47.9124088 L9.50654944,48.1279877 L9.55657098,48.1236847 L9.77542854,47.9218753 L9.9793543,48.1101303 L10.0708649,48.1121742 L10.2673248,47.9348918 L10.4346676,48.1033532 L10.5799327,48.1033532 L10.756448,47.9422069 L10.9040595,48.0909821 L11.097213,48.0861413 L11.2543169,47.9554385 L11.3867833,48.082161 L11.3979822,48.0792565 C11.3979822,48.0792565 11.2302127,41.1732018 11.2038687,40.1437157 C11.2363987,40.170179 11.6203594,40.3800565 11.6203594,40.3800565 L17.9877065,28.8312026 L17.8281496,28.7466492 L17.7700222,28.7624626" id="Fill-2" sketch:type="MSShapeGroup"></path>
            <path d="M38.1896886,19.0590459 L38.1927816,19.1320888 L38.4800055,19.3139969 C38.4827785,19.2751626 38.3112761,19.4294242 38.3065833,19.4478194 L38.4970704,19.6830844 L38.2903716,19.8957587 C38.2897317,19.9136161 38.2866386,19.9386809 38.2889851,19.9611639 L38.4736061,20.1861018 L38.2674406,20.3996368 C38.2688271,20.4200759 38.2660541,20.440515 38.2654142,20.4685919 L38.451955,20.6927767 L38.2504824,20.8985663 C38.2522955,20.9247069 38.2487759,20.9525686 38.2457895,20.9756971 L38.4304106,21.2048304 L38.2297911,21.4072852 C38.2281913,21.4319197 38.2295778,21.4618254 38.2257382,21.4899023 L38.4093994,21.7163462 L38.2096332,21.9132071 C38.2100598,21.9419295 38.2059003,21.9652731 38.2041938,21.9958242 L38.386895,22.2186105 L38.1878754,22.4206351 C38.1899019,22.4580709 38.1842491,22.4832433 38.1842491,22.50379 L38.2236051,22.5487561 L54.6335493,23.2368013 L54.577555,23.1632205 L54.8146507,22.9177359 L54.6012326,22.6639681 L54.8399281,22.4213881 L54.6154178,22.1718157 L54.8614726,21.9322478 L54.639842,21.6788027 L54.8793907,21.4367606 L54.6667192,21.1707293 L54.9016818,20.9341734 L54.6877304,20.6811587 L54.9314387,20.4438498 L54.7081016,20.1965365 L54.9486103,19.9550322 L54.7303927,19.7020174 L54.9730345,19.4633101 L54.7520438,19.212662 L54.9912726,18.9630896 L54.7749748,18.7066325 L55.0151635,18.4802961 L54.9486103,18.4018745 L44.5502098,17.9634016 L54.080006,6.8602281 L55.0981416,6.79181084 C55.0981416,6.79181084 55.0412941,5.96693113 55.0252958,5.75619308 C55.1417638,5.6238767 55.5844918,5.1065519 55.5844918,5.1065519 C55.5844918,5.1065519 55.257272,4.82352392 55.0573992,4.64817782 L54.9314387,4.53823689 C54.9311188,4.49348598 54.9214131,4.33976231 54.9214131,4.27338897 L54.7505506,4.10976846 L54.8945359,3.9242028 C54.8900563,3.87622466 54.8911229,3.83319494 54.8887764,3.78553953 L54.7059685,3.61395852 L54.8640323,3.40806132 C54.8561398,3.36987244 54.8547533,3.32340035 54.8507003,3.2851039 L54.6630929,3.11545923 L54.827876,2.88944563 C54.8212634,2.85674304 54.8229699,2.82672981 54.818597,2.78950911 L54.6186175,2.61029033 L54.7880934,2.38191009 C54.7872402,2.3504984 54.7850004,2.32866082 54.7797743,2.29907789 L54.5749953,2.11426524 L54.6836775,1.95699162 L54.3737359,1.98162613 L38.2663741,3.13159537 L38.1842491,3.22905769 L38.4235846,3.4759407 L38.2037671,3.73121451 L38.4441692,3.97712935 L38.2289379,4.23423192 L38.4648604,4.48025434 L38.2487759,4.74026142 L38.4856582,4.98714443 L38.2680805,5.24080462 L38.5121089,5.49080729 L38.2931446,5.74468263 L38.5357864,5.99834283 L38.3296209,6.24920609 L38.3309008,6.26824674 L38.556691,6.49264672 L38.3621509,6.72436176 L38.3657772,6.78105342 L38.5761023,6.99308236 L38.396814,7.1962902 L38.396814,7.2775088 L38.5966869,7.47662882 L38.4271042,7.67564127 L38.432437,7.79074577 L38.6027662,7.96404796 L47.3138731,7.34485031 L37.6569432,18.5934643 C37.6569432,18.5934643 37.983843,18.8749862 38.1896886,19.0590459" id="Fill-3" sketch:type="MSShapeGroup"></path>
            <path d="M41.7333253,29.6186465 L41.9631684,29.3636954 L41.7353517,29.1325182 L41.9587955,28.8793959 L41.7305522,28.6396128 L41.9587955,28.3859526 L41.7292723,28.1478907 L41.9578356,27.8922941 L41.7278858,27.6482081 L41.9530361,27.4053053 L41.7295923,27.1565935 L41.9550625,26.9123999 L41.725966,26.6767046 L41.9530361,26.418849 L41.7266059,26.1761614 L41.950903,25.9307844 L41.7211665,25.702942 L41.9454635,25.4398153 L41.722553,25.2132638 L41.9496231,24.9597112 L41.8369946,24.8600974 L41.5892334,24.8560096 L22.7270606,24.9686399 L22.8846978,25.1355952 L22.7110623,25.3326713 L22.7130887,25.4513258 L22.8853377,25.6388278 L22.716395,25.8318161 L22.716395,25.9585386 L22.8853377,26.1537859 L22.7174616,26.3465591 L22.717035,26.4712377 L22.8865109,26.664979 L22.7187415,26.853234 L22.720448,26.981355 L22.8887507,27.1721918 L22.7255674,27.3592635 L22.7211946,27.4857709 L22.8929103,27.677038 L22.7245009,27.8636794 L22.7249275,27.9916928 L22.8916304,28.1774736 L22.7295137,28.3689559 L22.7238609,28.4970768 L22.8924837,28.6873758 L22.7270606,28.8686385 L22.7291937,29.0029988 L22.8997363,29.187166 L22.7333533,29.3685362 L22.7340999,29.5034344 L22.9017627,29.6984666 L22.7312202,29.8797293 L22.7309002,30.0134441 L22.9010161,30.1909417 L22.7380462,30.3727423 L22.7360197,30.4000662 C22.7360197,30.4000662 22.9178677,30.4000662 23.0297496,30.404907 L23.0428682,41.8079977 C22.9297065,41.8180021 22.7623637,41.8318792 22.7623637,41.8318792 L23.0457479,45.8947453 L23.0483077,47.5482698 L23.2357018,47.7111373 L23.4867694,47.4841555 L23.737837,47.7131812 L23.985065,47.4808207 L24.235386,47.7050055 L24.4895466,47.4753344 L24.7340015,47.7043601 L24.9853891,47.471139 L25.233257,47.705651 L25.4837913,47.4732905 L25.7354988,47.6988738 L25.9937124,47.4692027 L26.2417936,47.6942481 L26.4818756,47.4671588 L26.7327299,47.6942481 L26.9773982,47.4629634 L27.213214,47.6909133 L27.4636417,47.458768 L27.6993508,47.6900527 L27.9602307,47.461027 L28.2093785,47.6858573 L28.4469008,47.4686648 L28.4429546,46.8765759 C29.0539853,46.8364507 34.3296044,46.4599406 35.0313991,46.4130382 L35.0316124,47.3608754 L35.1732512,47.4835101 L35.247057,47.4854464 L35.4612217,47.2795492 L35.6835989,47.4826495 L35.73714,47.4850161 L35.96485,47.2709432 L36.2041855,47.4850161 L36.2258366,47.4835101 L36.4652787,47.2612616 L36.7139999,47.4821116 L36.7166663,47.4801752 L36.9660274,47.2530859 L37.2121888,47.4753344 L37.464323,47.2440497 L37.7163505,47.4662982 L37.9625119,47.2249014 L38.214646,47.4519908 L38.4678467,47.2181243 L38.7207275,47.4419864 L38.9577165,47.2053229 L39.2182765,47.4281093 L39.4512126,47.1997291 L39.6938544,47.4206867 L39.9371361,47.1847762 L40.1829775,47.4056263 L40.4246594,47.1856368 L40.4204999,46.0285677 C40.526729,46.0182405 40.7135898,46.0078058 40.7135898,46.0078058 L40.4144205,41.7335563 C40.4144205,41.7335563 40.4157004,39.464384 40.4119674,38.8466924 C40.4806537,38.8494894 40.5632052,38.8515333 40.633598,38.8536848 L40.7078304,38.761386 L40.7125233,38.6435922 L40.5341949,38.4586719 L40.7216956,38.245137 L40.7232955,38.1595078 L40.536008,37.963615 L40.734921,37.7407211 L40.7389739,37.6873642 L40.5316351,37.4732914 L40.7483596,37.2301735 L40.7470797,37.2076904 L40.5316351,36.9628513 L40.7564654,36.7099442 L40.5287554,36.4727428 L40.7564654,36.2223099 L40.5304619,35.9836025 L40.7533724,35.7354286 L40.5258757,35.4913425 L40.7547589,35.2391884 L40.5287554,34.9996204 L40.7533724,34.7414421 L40.5204363,34.4903637 L40.7470797,34.2552063 L40.5212895,34.0070324 L40.7470797,33.7623008 L40.5191564,33.5261753 L40.6281586,33.4117162 L31.2780772,33.1627893 L31.0894032,33.3734197 L31.0901498,33.4437733 L31.2855431,33.671293 L31.0759646,33.8993505 L31.0799109,33.9381848 L31.2876762,34.1725892 L31.0667922,34.4167829 L31.0658323,34.4262494 L31.286823,34.6777581 L31.0597529,34.9232427 L31.286823,35.1770104 L31.0630593,35.4274434 L31.2949288,35.6844384 L31.0675388,35.9333653 L31.2949288,36.1943406 L31.0682854,36.4472477 L31.2932223,36.6892899 L31.0651924,36.941444 L31.296422,37.1849923 L31.0684987,37.4209027 L31.299515,37.6766068 L31.069352,37.9166051 L31.3007949,38.1762894 L31.0740448,38.4315632 L31.2390412,38.6059412 C32.0635967,38.6271333 34.5114524,38.6893112 35.0197736,38.7062004 L35.0226533,40.955579 C34.4100228,41.0011905 29.1345103,41.3832944 28.4382617,41.426862 L28.4219434,30.370806 C29.1081664,30.3686545 40.7240421,30.2971176 41.8990683,30.2923843 L41.7347118,30.1056353 L41.9662614,29.8573538 L41.7333253,29.6186465" id="Fill-4" sketch:type="MSShapeGroup"></path>
            <path d="M36.9393634,20.367472 C36.9427764,20.3668266 37.3412422,3.08684447 37.3412422,3.08684447 L37.2932472,3.08598387 L37.0810023,3.27940246 L36.8618247,3.07630218 L36.8159628,3.07113862 L36.5862263,3.28435088 L36.335372,3.06403871 L36.3187337,3.05962817 L36.0835579,3.2851039 L35.8263042,3.05790698 L35.5856889,3.28768568 L35.331635,3.05790698 L35.0861135,3.29145078 L34.8383522,3.06274782 L34.5969903,3.29080533 L34.346456,3.06479173 L34.1039208,3.29543103 L33.8611724,3.06543718 L33.6063718,3.29833553 L33.3548776,3.07393555 L33.1226881,3.29887341 L32.8714072,3.07049317 L32.6348448,3.30403697 L32.5327753,3.20872614 L32.5268025,3.35868472 C32.5268025,3.35868472 32.2108883,17.1643398 32.1938233,17.8393685 C31.6168158,17.8829361 27.1956158,18.1980212 26.5243246,18.2422342 C26.5163254,17.4765204 26.2256886,3.21647149 26.2229155,2.99766537 L26.2129965,2.99110334 L26.0971684,2.99110334 L25.9179868,3.17215088 L25.7333657,3.00067745 L25.601006,3.00272137 L25.4286503,3.16731004 L25.2522417,3.01294092 L25.1001506,3.01390909 L24.9323812,3.17484024 L24.7722909,3.02520439 L24.6101742,3.02617256 L24.4462444,3.17516296 L24.2914869,3.02757103 L24.1153983,3.03370276 L23.9700265,3.17860534 L23.8169755,3.04123296 L23.6216889,3.04047994 L23.4747173,3.18204772 L23.3360648,3.04833287 L23.1376852,3.05414188 L23.0051121,3.18441435 L22.8648598,3.05726153 L22.6435492,3.06479173 L22.5231349,3.18893247 L22.3916283,3.06748109 L22.1607187,3.07285981 L22.0515032,3.19097639 L21.9403679,3.07909912 L21.7098849,3.08447783 L21.6050423,3.19097639 L21.4934804,3.09276105 L21.4225544,3.08598387 L21.7959561,21.8402717 C21.7959561,21.8402717 22.3406469,21.8360763 22.4983907,21.826825 C22.5325206,22.2542176 22.6079262,23.3771857 22.6079262,23.3771857 L37.0810023,22.3461937 L36.9393634,20.367472" id="Fill-5" sketch:type="MSShapeGroup"></path>
            <path id="Fill-6" sketch:type="MSShapeGroup" d="M55.669923,21.3992171 L55.6707763,21.3760886 L55.669923,21.3992171"></path>
            <path d="M108.938915,2.05058126 L108.817114,2.05058126 L108.646891,2.22237741 L108.46099,2.05639027 L108.336523,2.06144626 L108.157981,2.23281212 L107.976133,2.06230686 L107.84484,2.06359775 L107.672911,2.23700752 L107.478584,2.06607196 L107.354331,2.06983706 L107.171949,2.24582861 L106.992448,2.07338701 L106.87342,2.08059449 L106.685706,2.25432698 L106.498098,2.08059449 L106.390696,2.0817778 L106.210554,2.26293292 L106.013241,2.08801711 L105.907546,2.08801711 L105.717592,2.26938738 L105.524438,2.09210494 L105.428875,2.09135192 L105.243294,2.27853119 L105.037448,2.09339583 L104.947111,2.10200177 L104.762703,2.28304932 L104.558884,2.10329266 L104.46844,2.10264722 L104.288938,2.29423704 L104.132154,2.14266486 C104.13898,2.60480404 104.217159,9.16414683 104.253422,12.1186749 C103.240192,9.1906101 100.776125,2.06897646 100.639286,1.66740161 L100.617848,1.65815022 C100.59481,1.65868809 100.562174,1.67148943 100.521751,1.68848617 L100.394511,1.9223527 L100.159015,1.81348751 C100.128618,1.82349192 100.096515,1.83607811 100.066331,1.84457648 L99.9385575,2.07919602 L99.7024217,1.97269747 C99.6697851,1.98754272 99.635122,2.0027107 99.5966193,2.01260753 L99.4804712,2.23227425 L99.254361,2.13362862 C99.212552,2.14664511 99.1721294,2.16052219 99.1294672,2.17590531 L99.0127858,2.39621748 L98.799261,2.2935916 C98.7532924,2.30348843 98.7170294,2.32048517 98.6718074,2.33490013 L98.5693113,2.54585332 L98.3468274,2.44903646 C98.304805,2.46431201 98.2559567,2.48077087 98.2138277,2.49884336 L98.113678,2.69764066 L97.9036728,2.60480404 C97.8549312,2.62470528 97.7984036,2.63890509 97.7571279,2.6573003 L97.6690302,2.85297794 L97.4848358,2.75379444 C97.4250019,2.77014573 97.3751937,2.78950911 97.3311449,2.80360134 L97.2380344,2.99766537 L97.0474406,2.90558177 C96.9833405,2.92827995 96.9479308,2.94785847 96.9345989,2.94742818 C96.9275596,2.94742818 96.8221837,3.13536047 96.8221837,3.13536047 L96.7441117,2.94129644 C96.2033672,2.93215263 94.7107202,2.89600766 94.7107202,2.89600766 C94.7107202,2.89600766 94.3620626,18.0553777 94.3188671,20.0946636 C94.2879369,20.0172101 87.7446078,2.19612928 87.4329597,1.35468313 L87.3127587,1.57736192 L87.0520921,1.45838475 C87.0348139,1.46892703 87.0148693,1.47204669 86.9973777,1.48194352 L86.8642714,1.73011743 L86.6144836,1.62168253 C86.5881397,1.63459145 86.5543298,1.64513373 86.5223331,1.65642903 L86.4119444,1.88588501 L86.1798615,1.78315155 C86.1408255,1.79756651 86.1042426,1.81499355 86.0639268,1.83123727 L85.9651635,2.03724205 L85.7669972,1.93999488 C85.7229484,1.95473256 85.6791129,1.97345049 85.6341042,1.98840331 L85.5386473,2.18300522 L85.3468803,2.09447157 C85.2862998,2.11964396 85.1191703,2.31704279 85.1191703,2.31704279 L84.9825443,2.16557818 L82.6015617,1.31111554 L75.8187905,20.5905811 L76.1930455,20.725049 L76.2380542,20.5489499 L76.3672143,20.7883027 L76.4556319,20.8189614 L76.7102191,20.7111719 L76.8463118,20.9547201 L76.9157447,20.9779562 L77.1848371,20.8674774 L77.3290357,21.1298511 L77.3742577,21.1448039 L77.6587085,21.0243207 L77.8089865,21.3072411 L77.8414098,21.3133728 L78.1358863,21.1864352 L78.2992829,21.4776388 L78.3095218,21.4802206 L78.6016519,21.3404816 L78.7673949,21.635773 L79.071897,21.5001218 L79.2265478,21.7946602 L79.5348895,21.6500804 L79.689647,21.9467703 L80.0027882,21.8125176 L80.1716242,22.1103908 L80.424185,21.9896924 C80.7531113,21.0767094 81.9850916,17.5652692 82.1307833,17.1426097 C82.6565961,17.1636943 88.1161963,17.3941185 88.2013076,17.3974533 C88.7752221,18.9630896 89.9619804,22.1861231 89.9619804,22.1861231 C89.9619804,22.1861231 90.0148817,22.1654688 90.1136449,22.12728 L90.1655862,22.0134664 L90.2984793,22.0591854 C90.3699386,22.0351964 90.4493971,22.0032468 90.5400545,21.9659185 L90.6101273,21.8171433 L90.7837628,21.8833015 C90.8431701,21.85942 90.9112164,21.8315582 90.9763831,21.8091828 L91.0657606,21.6185611 L91.2883511,21.6890223 C91.3353863,21.6793406 91.3810349,21.6562121 91.4288167,21.6399684 L91.5258734,21.4176123 L91.770435,21.5082975 C91.7977389,21.5001218 91.8241895,21.4919462 91.8558662,21.4767782 L91.956016,21.2276361 L92.2333209,21.3351028 C92.2464395,21.3315529 92.2558252,21.3263893 92.2652109,21.3275726 L92.3986373,21.0350781 L92.6914072,21.1530871 L92.8326194,20.8435959 L93.1314688,20.9622503 L93.2501766,20.6580302 L93.5242819,20.7856133 L93.6372303,20.4909673 L93.6048069,20.7705529 C93.6048069,20.7705529 94.2862304,20.5680981 94.306815,20.5599225 C94.302762,20.6115581 94.2871903,21.5274457 94.2829241,21.6366336 L94.3887266,21.543044 L94.5041281,21.6535228 L94.77802,21.6601924 L94.8988609,21.5601483 L95.0099962,21.6609454 L95.2842081,21.6747149 L95.4024893,21.5711209 L95.506052,21.6760058 L95.7938092,21.6826754 L95.9023847,21.5854282 L96.0038143,21.6883768 L96.2860254,21.6941858 L96.4050532,21.5984447 L96.5013633,21.6983812 L96.7893338,21.7087084 L96.900789,21.6079113 L97.0032852,21.7087084 L97.2956285,21.719681 L97.4000445,21.6242626 L97.5036072,21.7272112 L97.7984036,21.7250597 L97.9069792,21.6406138 L98.0014761,21.7339883 L98.2944594,21.7428094 L98.3956757,21.6527697 L98.4924125,21.7448533 L98.7914751,21.7503396 L98.8913049,21.6665393 L98.9754563,21.7578698 L99.0841385,21.7598062 C99.0841385,21.7598062 99.2326032,15.2871683 99.2960634,12.5052969 C100.172347,15.0423292 102.54629,21.9146056 102.55013,21.9236418 L102.661692,21.9472006 C102.955742,21.8410248 103.895805,21.5108792 104.357838,21.3529602 C104.356131,21.400508 104.362424,21.6459926 104.36413,21.8043419 L104.510889,21.9240721 L104.758437,21.6931101 L105.016117,21.918801 L105.258012,21.6841814 L105.520492,21.907936 L105.760361,21.6760058 L106.016121,21.9004058 L106.267402,21.6665393 L106.524336,21.8934134 L106.778496,21.6590091 L107.027004,21.8806121 L107.276472,21.6500804 L107.527326,21.8738349 L107.77978,21.6385699 L108.027222,21.8629699 L108.281595,21.6336215 L108.523277,21.85942 L108.780958,21.6227565 L109.025946,21.8492004 L109.169078,21.7175295 L108.938915,2.05058126 L108.938915,2.05058126 Z M83.8130642,12.3615777 C84.0343748,11.7343119 84.6584175,9.96589807 85.0579499,8.83260284 C85.4735873,9.97063133 86.1415721,11.7847643 86.3930663,12.4734549 C85.7114296,12.4461311 84.4411598,12.3914833 83.8130642,12.3615777 L83.8130642,12.3615777 Z" id="Fill-7" sketch:type="MSShapeGroup"></path>
            <path d="M105.073711,42.3920186 C105.648799,41.4043789 110.861171,32.4577473 111.048778,32.1399729 C111.269129,32.1244822 111.996095,32.070695 111.996095,32.070695 C111.996095,32.070695 111.910663,30.874684 111.895838,30.6855684 C111.97615,30.5576625 112.338353,29.9315801 112.338353,29.9315801 C112.338353,29.9315801 112.261667,29.8825262 112.163757,29.8274482 L112.164184,29.8560629 L112.152132,29.820671 C112.137627,29.8158302 112.124615,29.8001243 112.107657,29.7952835 L112.10531,29.8593977 L112.086219,29.7783943 C112.07438,29.7720474 112.062541,29.7638718 112.044623,29.7564491 L112.04057,29.8655295 L112.006974,29.7320298 C111.995348,29.7244996 111.982016,29.7189057 111.968684,29.7128816 L111.918876,29.875749 L111.885066,29.687494 L111.837498,29.8846777 L111.708124,29.7809761 L111.825765,29.6255312 L111.820646,29.6233797 C111.8183,29.5812106 111.815207,29.5089207 111.806887,29.4142553 L111.662795,29.2832298 L111.785023,29.1149836 C111.78225,29.0617343 111.777877,28.9948231 111.769131,28.9322149 L111.615547,28.7813957 L111.752173,28.5931407 C111.747907,28.5440868 111.743747,28.492236 111.741507,28.4364049 L111.564779,28.2747208 L111.71431,28.0769992 C111.707378,28.0286984 111.706418,27.9892186 111.708124,27.9454358 L111.515077,27.7757912 L111.676874,27.5589214 C111.675381,27.5247128 111.675168,27.4865239 111.674528,27.459953 L111.474548,27.2826706 L111.570752,27.1395968 L111.262197,27.1654146 L97.4363074,28.1492891 L97.6330872,28.3655135 L97.4132698,28.6197115 L97.6471658,28.8727263 L97.4268151,29.1263865 L97.6592179,29.375421 L97.4358808,29.632416 L97.6725499,29.878546 L97.4482529,30.1305926 L97.6834288,30.3825316 L97.4605183,30.6387735 L97.696974,30.8918959 L97.4756634,31.1460939 L97.7044399,31.3854467 L97.4827027,31.6458841 L97.723638,31.8877111 L97.4985944,32.1244822 L97.730144,32.3726561 L97.5104332,32.6249178 L97.7413428,32.8807295 L97.547656,33.1049143 C98.9640441,33.0019657 104.069441,32.6384721 105.110081,32.5670428 C104.468013,33.6635476 99.7306855,41.8056311 99.511508,42.1671883 C99.2297235,42.1571839 98.3145107,42.1210389 98.3145107,42.1210389 C98.3145107,42.1210389 98.2341989,44.198944 98.226733,44.3728917 C98.1522873,44.4962794 97.7334503,45.2144454 97.7334503,45.2144454 C97.7334503,45.2144454 98.1282898,45.4494952 98.1792712,45.4841342 C98.1687123,45.8087934 98.1191174,47.0520295 98.1191174,47.0520295 C98.1191174,47.0520295 100.859956,47.1732658 101.039138,47.1759551 C101.168085,47.2551298 101.960537,47.7232932 101.960537,47.7232932 C101.960537,47.7232932 102.204672,47.3026777 102.251387,47.2312483 C102.658172,47.2446951 110.651699,47.5722588 111.75004,47.6115235 L111.643811,47.4869524 L111.883786,47.250289 L111.670581,46.9797396 L111.909597,46.7443671 L111.696819,46.4947947 L111.930821,46.2560873 L111.932528,46.2542586 L111.71815,46.0033953 L111.950766,45.773509 L111.951406,45.7589865 L111.743747,45.5123186 L111.968897,45.2843687 L111.969217,45.2579054 L111.765078,45.022748 L111.990975,44.7935072 L111.991722,44.7559637 L111.794835,44.5208063 L112.010173,44.3135107 L112.011666,44.2697279 L111.81766,44.0306978 L112.032144,43.8248006 L112.028838,43.7695074 L111.835898,43.5503786 L112.049636,43.3427602 L112.054435,43.2732672 L111.864161,43.052202 L112.065954,42.8551259 L112.069154,42.7861708 L111.974657,42.6725723 C111.201616,42.641053 106.061663,42.4371998 105.073711,42.3920186" id="Fill-8" sketch:type="MSShapeGroup"></path>
            <path d="M80.1922088,27.0965671 L80.1716242,27.0965671 L79.9418878,27.3135444 L79.7086317,27.1028064 L79.6810079,27.1013003 L79.4576708,27.3189231 L79.227721,27.1028064 L79.1911381,27.1081851 L78.9728138,27.3181701 L78.7445705,27.1089381 L78.700735,27.1130259 L78.4800643,27.3222579 L78.2534209,27.1172213 L78.2048925,27.1182971 L77.986035,27.3264533 L77.7769897,27.1223849 L77.7181158,27.1238909 L77.5005381,27.3283897 L77.2827471,27.1332499 L77.2300591,27.1286242 L77.0226138,27.3305412 L76.8063159,27.1307757 L76.7392295,27.1332499 L76.5295443,27.3324775 L76.3264718,27.1395968 L76.2565056,27.1422861 L76.0571661,27.3378562 L75.8449212,27.1504618 L75.7634362,27.1497088 L75.5730557,27.3406531 L75.3639038,27.1504618 L75.2999104,27.1526133 L75.3150555,28.2672981 L72.793394,27.6999513 C72.793394,27.6999513 70.4991226,37.9404865 70.020985,40.0976739 C69.3074581,38.0250399 65.5948788,27.2848221 65.3972457,26.7161844 L65.3834871,26.7538354 L65.2940029,26.7201646 L65.0195777,26.8162284 C65.0195777,26.8162284 65.0083789,26.8211769 64.9922739,26.8233284 L64.9373462,26.9506963 L64.7835486,26.9008894 C64.7232881,26.9269224 64.6519354,26.9453176 64.5722636,26.9759763 L64.5021908,27.1512148 L64.2834399,27.0796779 C64.2415242,27.0938777 64.1921426,27.1089381 64.1488404,27.1259348 L64.0489039,27.3536696 L63.7765052,27.250721 C63.7580538,27.2590043 63.7420554,27.2650284 63.7280835,27.271698 L63.6202545,27.5452595 L63.2937814,27.4463987 L63.180513,27.7416901 L62.8599058,27.6366976 L62.7475974,27.9367223 L62.4542941,27.8186058 L62.3405991,28.1219653 L62.0271379,28.0066456 L61.9338141,28.2986023 L61.9548253,28.0247181 L61.7292484,28.0879718 L61.9070435,27.9408102 L61.6905324,28.0141758 L61.658749,27.9925534 C61.4680485,27.9877125 60.4242089,27.9602811 60.4242089,27.9602811 L59.9789212,47.062034 L60.0983756,47.1643371 L60.2508933,47.1732658 L60.4291151,47.0122271 L60.6165092,47.1820869 L60.7327639,47.1814414 L60.9314636,47.0082468 L61.1314431,47.1929519 L61.2223137,47.1923064 L61.4234664,47.0046969 L61.6448837,47.203279 L61.6992782,47.2087653 L61.9163226,46.9992106 L62.142646,47.2181243 L62.16867,47.2187697 L62.4008596,46.9988878 L62.6403017,47.2264075 L62.900755,46.9950152 L63.1559822,47.2249014 L63.3937178,46.989744 L63.6395592,47.2211363 L63.8689757,46.989744 L64.0976456,47.2139289 L64.350313,46.9892062 L64.5745034,47.2160803 L64.8269575,46.9837199 L64.8894578,47.0511689 C64.9071626,46.1388313 64.9932338,42.7349654 65.0320565,40.7047157 C65.8489327,43.0475763 67.384242,47.4984629 67.384242,47.4984629 C67.384242,47.4984629 69.5184231,46.7531881 69.7090169,46.6836951 C69.9104896,46.7313506 73.3996252,47.5198702 73.3996252,47.5198702 C73.3996252,47.5198702 74.6638156,41.8495214 75.4346166,38.3912229 C75.4681065,41.486243 75.518448,46.2333891 75.53082,47.2522253 L75.6509144,47.3642102 L75.9041151,47.1316345 L76.1500632,47.3600148 L76.4141428,47.1324951 L76.6569979,47.3547436 L76.89676,47.1261482 L77.1502807,47.3532376 L77.3914293,47.1239967 L77.6318313,47.353883 L77.8780994,47.1234589 L78.1177548,47.3518391 L78.3759683,47.1208771 L78.6326887,47.3457074 L78.8737306,47.1158211 L79.1111463,47.3375317 L79.3462155,47.1118409 L79.5777651,47.3408665 L79.8300059,47.1091515 L80.0516365,47.3366711 L80.3007843,47.1091515 L80.4380502,47.2421133 L80.2035143,27.1033442 L80.1922088,27.0965671" id="Fill-9" sketch:type="MSShapeGroup"></path>
            <path d="M75.4131788,2.10748806 L75.3400129,2.18042344 L75.2429562,2.09339583 L74.9499729,2.09651548 L74.8540894,2.19881864 L74.7400744,2.10296994 L74.4695955,2.10049573 L74.3521675,2.22087137 L74.223754,2.10910168 L73.9902847,2.10845623 L73.8667773,2.23227425 L73.730258,2.11587886 L73.5133202,2.11114559 L73.3808538,2.25228307 L73.2243898,2.1202894 L73.0427551,2.11770762 L72.8996231,2.26831164 L72.7311071,2.12523782 L72.5635509,2.12588327 L72.4075136,2.28369476 L72.2191596,2.1286802 L72.0825336,2.13233772 L71.9117778,2.30520962 L71.724597,2.13707099 L71.609942,2.1328756 L71.4206281,2.31983972 L71.222995,2.14191184 L71.1376705,2.14266486 L70.9505963,2.33931067 L70.7265126,2.14599966 L70.6591062,2.14804357 L70.6114311,2.19946409 C70.6085514,2.21377147 70.6169772,2.99766537 70.6196436,3.2386318 L70.2568008,3.42301415 L70.0633273,3.14203008 L69.7688508,3.30468242 L69.5809234,3.02961494 L69.2870869,3.19667782 L69.083801,2.90999232 L68.7935908,3.074581 L68.5993707,2.79574842 L68.3116135,2.96819002 L68.1491769,2.7326023 C67.982474,3.48099669 65.4647588,14.7541376 65.4647588,14.7541376 L60.9510882,1.69719969 L60.6286679,1.81090572 L60.5787531,1.90535596 L60.4798832,1.86307926 C60.406824,1.88653045 60.3072076,1.9185876 60.1919127,1.96280063 L60.1316522,2.07919602 L60.0038787,2.03164818 C59.9243135,2.05940235 59.8368558,2.0859732 59.7482249,2.1202894 L59.6766589,2.26422381 L59.5171019,2.19946409 C59.4478823,2.22162439 59.3804759,2.24927099 59.3157359,2.27476609 L59.2379839,2.43849417 L59.0433371,2.36588152 C58.9852098,2.38933272 58.9296421,2.4074052 58.8729013,2.42935036 L58.7922696,2.61513117 L58.5750118,2.53262169 C58.534056,2.54854268 58.4813681,2.56285006 58.4375326,2.57661957 L58.3546611,2.79026213 L58.1260979,2.6911862 C58.0975141,2.70129818 58.0670106,2.71259348 58.0390668,2.72076913 L57.9366773,2.95797046 L57.6717444,2.84620076 C57.653293,2.85405369 57.6338817,2.86190661 57.6153236,2.86943681 L57.5241329,3.11718042 L57.4566198,2.87728973 L57.3685222,2.98120651 C57.3685222,2.98120651 57.3289529,2.9699112 57.3229802,2.9736763 C57.2008594,2.96926576 56.0918531,2.94334035 56.0918531,2.94334035 L55.6707763,21.3760886 L55.917471,21.6185611 L56.1796308,21.4034125 L56.4256855,21.6467456 L56.6847523,21.4360075 L56.9241944,21.6814921 L57.1826213,21.4648374 L57.4195036,21.7080629 L57.6865696,21.4919462 L57.9230253,21.7394746 L58.1961707,21.5226048 L58.423454,21.7627107 L58.4416922,21.7598062 L58.6971326,21.5579968 L58.901485,21.7686273 L58.9624921,21.7728227 L59.1967081,21.5860737 L59.3833556,21.7794923 L59.4296442,21.7851937 L59.4298575,21.7817513 L59.4843586,21.7809983 L59.5051565,21.7686273 L59.6947904,21.6167324 L59.8227772,21.7489412 L59.8239504,21.7387216 L59.8280034,21.754535 L59.8615999,21.7913254 L59.8967963,21.7925088 L59.8986095,21.7353868 L59.9173809,21.7933693 L59.9700688,21.7968117 L59.9794545,21.7245218 L60.0495273,21.7633561 L60.1938325,21.6419047 L60.2516399,21.706019 L60.3155267,21.7761575 L60.3229926,21.7593759 L60.3236325,21.7005327 L60.3368579,21.7477578 L60.384533,21.6941858 L60.3762138,21.8068161 L60.4654847,21.8091828 L60.6108564,15.433039 L62.8921159,22.0232556 C62.8921159,22.0232556 62.8984086,22.0195981 62.9221928,22.0108846 L63.1598218,21.8211235 L63.2365072,21.9011588 C63.7422687,21.7250597 64.6514022,21.4053489 65.0123252,21.2758294 L65.082078,20.9689199 L65.2507007,21.2444177 C65.2548603,21.2471071 65.2624328,21.2519479 65.267019,21.2500116 L65.5624554,21.1047863 L65.7161463,21.3514541 C65.741637,21.3603828 65.7574221,21.36716 65.7780066,21.3685584 L66.0424062,21.2362421 L66.1832984,21.4607496 C66.2178549,21.4659132 66.2560376,21.4755949 66.2961402,21.4877508 L66.5231036,21.3698493 L66.6505572,21.5669255 C66.6994055,21.5759617 66.75348,21.5908069 66.8103275,21.6009189 L67.0115868,21.5067914 L67.1149362,21.6698741 C67.1903418,21.6867632 67.2578549,21.7054811 67.3230216,21.719681 L67.4822586,21.6303943 L67.5762223,21.7761575 C67.6621868,21.7946602 67.7504977,21.8177887 67.8319827,21.8360763 L67.959543,21.7708863 L68.0254562,21.8757713 C68.1376581,21.9024497 68.2351414,21.9236418 68.3288918,21.9472006 L68.4264818,21.8982543 L68.4848225,21.9814092 C68.6568582,22.0190602 68.7677801,22.0468144 68.7677801,22.0468144 L70.7393113,13.2103389 C70.7393113,13.2103389 70.8334883,21.2525934 70.8423407,21.9057845 L70.9197728,21.977429 L70.9386509,21.974632 L71.1785196,21.7557183 L71.4212681,21.9720503 L71.4361999,21.9734487 L71.6868408,21.7481881 L71.9158307,21.9644125 L71.9419613,21.9595716 L72.1873762,21.7489412 L72.4168993,21.9583883 L72.4556153,21.9603247 L72.6743662,21.7428094 L72.907089,21.9555914 L72.9458051,21.9535475 L73.1691422,21.7435624 L73.3858666,21.9452643 L73.4257559,21.9487066 L73.6520793,21.7360322 L73.870297,21.9419295 L73.9242648,21.9419295 L74.153148,21.7332353 L74.3766984,21.9356901 L74.4394119,21.9337538 L74.6471773,21.731299 L74.8596355,21.9263312 L74.9221358,21.9263312 L75.1214753,21.7324823 L75.317082,21.9236418 L75.388328,21.9255782 L75.6018528,21.7291475 L75.6413154,21.7660455 L75.4131788,2.10748806" id="Fill-10" sketch:type="MSShapeGroup"></path>
            <path d="M96.0359177,30.5554035 L95.9647783,30.4348127 L96.0882856,30.1751283 L95.9326749,29.9467481 L96.0542625,29.6862031 L95.8999316,29.4551335 L96.0277052,29.2007203 L95.8706013,28.9682523 L95.9969883,28.705771 L95.8402044,28.4779286 L95.9618986,28.2121125 L95.8120473,27.9735127 L95.9326749,27.7253388 L95.7772775,27.4839421 L95.8982251,27.2443742 L95.6368119,27.2623391 C95.6368119,27.2623391 85.0802409,28.0171879 85.0418449,28.010841 C85.0072884,28.0131001 81.7381836,27.9360769 81.7381836,27.9360769 L81.2934292,47.1411011 C81.2934292,47.1411011 82.5900429,47.1713294 83.035224,47.1774612 C83.0434364,47.3128972 83.0818325,47.8425931 83.0818325,47.8425931 L96.6488682,46.8779743 L96.7437918,46.6755195 L96.5909541,46.4483226 L96.7083821,46.1837974 L96.5549045,45.9405719 L96.6751055,45.6785209 L96.5162951,45.4433635 L96.637776,45.1919624 L96.4831252,44.9620761 L96.6090856,44.7057265 L96.4494219,44.4751948 L96.5763423,44.210562 L96.4188117,43.978094 L96.5327201,43.7148597 L96.3789225,43.475722 L96.5030698,43.2276557 L96.3432995,42.9887332 L96.4669135,42.7372245 L96.3088497,42.5055094 L96.4335302,42.2524947 L96.2747199,42.0123889 L96.3085297,41.9449398 C95.0823088,42.0315371 87.0247882,42.6027566 86.3050754,42.6510575 C86.3191539,42.0485338 86.3595764,40.0590548 86.3744016,39.5041865 C87.0065501,39.5167727 93.6503489,39.6955612 95.174246,39.7323516 L95.1998434,39.6894295 L95.0706833,39.4385662 L95.216695,39.1835076 L95.0864683,38.9332897 L95.2342932,38.6815659 L95.1015068,38.433392 L95.2467719,38.1827439 L95.1150521,37.9314503 L95.2623436,37.6924202 L95.1295573,37.4455372 L95.2772755,37.2028496 L95.1434225,36.9374638 L95.2945537,36.6969277 L95.1573944,36.4481083 L95.3061792,36.205851 L95.1760592,35.9598286 L95.3245239,35.7155274 L95.1890712,35.4688595 L95.3380692,35.2234825 L95.2043229,34.9731571 L95.3158848,34.7844718 C93.818865,34.7496177 87.1160855,34.5756701 86.4886299,34.5565219 C86.5035617,34.1024508 86.5159337,33.2855315 86.5291591,32.8640555 C87.0478259,32.832321 93.0383583,32.4025617 95.4008894,32.2361443 L95.2989266,32.0460605 L95.4452582,31.7953048 L95.3103387,31.5681079 L95.4599767,31.3485487 L95.3299634,31.120814 L95.4688291,30.8836126 L95.3376426,30.6707231 L95.5660992,30.8113227 L95.6068417,30.5785319 L95.6648624,30.8043304 L95.7174437,30.5739062 L95.7797306,30.7989517 L95.8319919,30.5658382 L95.9114504,30.7948638 L95.9444071,30.5617503 L95.9980549,30.7934654 L96.0359177,30.5554035" id="Fill-11" sketch:type="MSShapeGroup"></path>
            <path d="M58.3950836,27.8499099 L57.8559389,27.8690581 L57.825542,27.8413039 C57.8068773,27.8432403 57.7905589,27.8432403 57.7763737,27.8397979 C57.7739206,27.8249526 57.776587,27.8077407 57.7748805,27.7833214 L57.6257758,27.6318568 L57.7576023,27.4894284 C57.7468301,27.3973448 57.744057,27.3189231 57.7388309,27.2623391 L57.68241,27.2076913 L57.3485776,27.2343697 C57.3485776,27.2343697 48.1550668,27.88627 47.4063436,27.9385511 C47.4063436,27.8581931 47.4043172,27.7736397 47.4043172,27.7736397 L42.7075187,27.8671218 L42.5785719,28.0090123 L42.8088417,28.2652542 L42.5783586,28.5093403 L42.8091616,28.7664429 L42.5842247,29.0173061 L42.8136412,29.2732254 L42.5831581,29.5273159 L42.812148,29.7638718 L42.5831581,30.0236637 L42.8141744,30.2685028 L42.5884909,30.5086086 L42.8210004,30.7593643 L42.5929705,30.9993626 L42.8196139,31.2611984 L42.5929705,31.5160419 L42.8200405,31.7645386 L42.5929705,32.0043217 L42.8235601,32.2377579 L42.5938237,32.468182 L42.8210004,32.7222725 L42.5993698,32.9435529 L42.5979833,32.9543103 L42.8216403,33.2038827 L42.6083289,33.4212903 L42.6060891,33.4422673 L42.8278264,33.6597825 L42.6187811,33.8548147 L42.6168613,33.882784 L42.8264399,34.0812586 L42.6233673,34.1242883 L42.8832874,47.0763413 L42.8836073,47.0730065 L42.9697852,46.8929272 L43.0336719,47.0763413 C43.0474305,47.0730065 43.0489237,47.0769868 43.0649221,47.0738671 L43.0928659,46.8847515 L43.1495001,47.0730065 C43.1560061,47.0763413 43.156326,47.070855 43.156326,47.070855 L43.2482633,46.8819546 L43.2711943,47.070855 C43.2738606,47.0730065 43.2738606,47.070855 43.289539,47.0688111 L43.4281915,46.9742533 L43.2307717,47.2087653 C43.2258656,47.2255469 43.2287453,47.2446951 43.2253323,47.2595404 L43.4322444,47.4835101 L43.2637284,47.6891921 C43.267248,47.7356642 43.2722608,47.7781561 43.2705543,47.8121495 L43.3382807,47.8911091 C44.2433612,47.8258115 55.7099189,47.006418 55.7099189,47.006418 L57.1125484,47.0372919 L57.1239606,47.0271799 L57.1375059,47.0404115 L57.6047646,47.0525674 L57.6358015,47.0247057 L57.662892,47.0545038 L58.0969808,47.0656915 L58.1398564,47.0190042 L58.1904113,47.0681657 L58.3598872,47.0702096 L58.8040017,27.8678748 C58.8040017,27.8678748 58.6140478,27.8608824 58.3950836,27.8499099 L58.3950836,27.8499099 Z M53.5649655,42.2031181 C52.9733462,42.244319 48.3752043,42.5666116 47.6963405,42.6159882 C47.6832219,41.8896466 47.5177989,33.5524234 47.5024404,32.8969732 C48.118164,32.8484572 53.0773355,32.4960438 53.7860628,32.4434399 C53.7698512,33.2032372 53.575951,41.5644495 53.5649655,42.2031181 L53.5649655,42.2031181 Z" id="Fill-12" sketch:type="MSShapeGroup"></path>
            <path id="Fill-13" sketch:type="MSShapeGroup"></path>
            <path d="M113.108514,28.2640709 L113.108514,27.2588967 L116.442892,27.2588967 L116.442892,28.2640709 L115.446514,28.2640709 L115.446514,31.2407593 L114.104998,31.2407593 L114.104998,28.2640709 L113.108514,28.2640709 L113.108514,28.2640709 Z M120.94643,28.7279313 L120.084119,31.2407593 L119.260203,31.2407593 L118.397678,28.7279313 L118.378587,28.7279313 L118.378587,31.2407593 L117.152046,31.2407593 L117.152046,27.2588967 L118.819288,27.2588967 L119.672108,29.3755286 L120.524927,27.2588967 L122.192276,27.2588967 L122.192276,31.2407593 L120.965628,31.2407593 L120.965628,28.7279313 L120.94643,28.7279313 L120.94643,28.7279313 Z" id="Fill-16" sketch:type="MSShapeGroup"></path>
        </g>
    </g>
</svg>